<svg width="24" height="24" viewBox="0 0 24 24" fill="none" xmlns="http://www.w3.org/2000/svg">
<path d="M4.66699 20H20.5559C21.2042 20 21.8259 19.7569 22.2844 19.3241C22.7428 18.8913 23.0003 18.3043 23.0003 17.6923V15.3846H4.66699V20Z" fill="#4AA657"/>
<path d="M20.5559 5H4.66699V15.3846H23.0003V7.30769C23.0003 6.69565 22.7428 6.10868 22.2844 5.67591C21.8259 5.24313 21.2042 5 20.5559 5Z" fill="#C8313E"/>
<path d="M3.44444 5C2.79614 5 2.17438 5.24313 1.71596 5.67591C1.25754 6.10868 1 6.69565 1 7.30769L1 17.6923C1 18.3043 1.25754 18.8913 1.71596 19.3241C2.17438 19.7569 2.79614 20 3.44444 20H4.66667V5H3.44444Z" fill="white"/>
<path d="M1.46817 18.9546L1.85011 18.3148L2.24184 18.9731L1.91061 19.4756C2.01499 19.5556 2.12618 19.6274 2.24306 19.6902L2.72706 18.8612L1.85928 17.5481L1.17667 18.5438C1.2885 18.8092 1.45228 19.0469 1.65395 19.2535L1.46817 18.9546ZM4.65511 18.9021L3.74028 17.6202L2.82239 18.8727L3.60828 20H4.00367L4.65511 18.9021ZM3.76717 18.3142L4.15889 18.9725L3.76717 19.5673L3.38522 18.9546L3.76717 18.3142ZM4.66672 12.6921V12.1763L4.47545 12.4279L4.66672 12.6921ZM2.72645 6.16885L2.18011 5.34154C1.70216 5.61657 1.33867 6.03813 1.15039 6.53577L1.93567 7.52404L2.72645 6.16885ZM1.46817 6.26231L1.85011 5.6225L2.24184 6.28077L1.85011 6.875L1.46817 6.26231ZM3.82156 7.61404L4.65511 6.20923L3.79222 5H3.68772L2.823 6.18038L3.82156 7.61404ZM4.15828 6.28019L3.76717 6.875L3.38522 6.26231L3.76717 5.6225L4.15828 6.28019Z" fill="#C8313E"/>
<path d="M4.02683 10.7692L4.56156 9.93098L4.66667 9.97482V9.6154L3.80744 8.35309L2.77589 9.7054L1.85922 8.31732L1 9.57098V9.94598L1.52494 10.7692L1.89711 10.2552L1.63006 9.90386L1.8305 9.65117L2.41289 10.3631L1.55367 11.6969L1 10.9775V11.8735L1.03544 11.8291L1.61783 12.541L1 13.501V14.18L1.55367 13.46L2.41289 14.7939L1.93011 15.3846L1.8305 15.5064L1.73394 15.3846L1.63006 15.2537L1.89772 14.9023L1.52556 14.3883L1 15.2121V15.5439L1.87878 16.8091L2.73433 15.3846L2.76672 15.3304L2.80217 15.3846L3.7885 16.8898L4.66667 15.4204V15.1948L4.59028 15.2271L4.05556 14.3883L3.68278 14.9023L3.95044 15.2537L3.84656 15.3846L3.75 15.5064L3.65039 15.3846L3.16761 14.7944L4.02683 13.4606L4.66667 14.2919V13.6331L3.95961 12.5358L4.542 11.8239L4.66667 11.9808V10.8287L3.99811 11.6981L3.13889 10.3637L3.72128 9.65174L3.92172 9.90386L3.65406 10.2552L4.02683 10.7692ZM3.61861 11.941V13.0533L2.76611 14.3242L1.96311 13.0481V11.9473L2.76611 10.6706L3.61861 11.941Z" fill="#C8313E"/>
<path d="M2.24188 11.821L2.60732 12.4504L2.24188 13.0798L2.50955 13.2183L2.78149 12.7504L3.05343 13.2183L3.3211 13.0798L2.95566 12.4504L3.3211 11.821L3.05343 11.6825L2.78149 12.1504L2.50955 11.6825L2.24188 11.821ZM1.0166 17.2238L1.39855 17.8365L1.79027 17.2417L1.39855 16.5835L1.0166 17.2238ZM1.94305 17.2238L2.32499 17.8365L2.7161 17.2417L2.32499 16.5835L1.94305 17.2238ZM2.84993 17.2238L3.23188 17.8365L3.6236 17.2417L3.23188 16.5835L2.84993 17.2238ZM3.82282 17.2238L4.20477 17.8365L4.59588 17.2417L4.20477 16.5835L3.82282 17.2238ZM1.0166 7.95673L1.39855 8.57L1.79027 7.97462L1.39855 7.31693L1.0166 7.95673ZM1.94305 7.95673L2.32499 8.57L2.7161 7.97462L2.32499 7.31693L1.94305 7.95673ZM2.84993 7.95673L3.23188 8.57L3.6236 7.97462L3.23188 7.31693L2.84993 7.95673ZM3.82282 7.95673L4.20477 8.57L4.59588 7.97462L4.20477 7.31693L3.82282 7.95673Z" fill="#C8313E"/>
</svg>
