<svg width="24" height="24" viewBox="0 0 24 24" fill="none" xmlns="http://www.w3.org/2000/svg">
<path d="M8.75 13.5C11.3734 13.5 13.5 11.3734 13.5 8.75C13.5 6.12665 11.3734 4 8.75 4C6.12665 4 4 6.12665 4 8.75C4 11.3734 6.12665 13.5 8.75 13.5Z" stroke="#402824" stroke-opacity="0.95" stroke-width="1.5" stroke-linecap="round" stroke-linejoin="round"/>
<path d="M16.738 10.6263C17.4863 10.9053 18.1523 11.3685 18.6742 11.973C19.1961 12.5776 19.5571 13.304 19.7239 14.0851C19.8907 14.8662 19.8578 15.6767 19.6284 16.4417C19.3989 17.2067 18.9802 17.9015 18.4111 18.4619C17.8419 19.0222 17.1407 19.43 16.3722 19.6475C15.6037 19.865 14.7928 19.8852 14.0144 19.7062C13.236 19.5273 12.5153 19.155 11.9189 18.6237C11.3226 18.0924 10.8698 17.4193 10.6025 16.6667" stroke="#402824" stroke-opacity="0.95" stroke-width="1.5" stroke-linecap="round" stroke-linejoin="round"/>
<path d="M7.95898 7.16666H8.75065V10.3333" stroke="#402824" stroke-opacity="0.95" stroke-width="1.5" stroke-linecap="round" stroke-linejoin="round"/>
<path d="M15.6461 13.405L16.2003 13.9671L13.9678 16.1996" stroke="#402824" stroke-opacity="0.95" stroke-width="1.5" stroke-linecap="round" stroke-linejoin="round"/>
</svg>
