<svg width="24" height="24" viewBox="0 0 24 24" fill="none" xmlns="http://www.w3.org/2000/svg">
<path d="M1.2002 19.56C1.2002 18.9635 1.68373 18.48 2.2802 18.48C2.87666 18.48 3.3602 18.9635 3.3602 19.56C3.3602 19.8464 3.47406 20.1211 3.6766 20.3236C3.87914 20.5261 4.15376 20.64 4.4402 20.64C5.03666 20.64 5.5202 21.1235 5.5202 21.72C5.5202 22.3165 5.03666 22.8 4.4402 22.8C3.58089 22.8 2.75703 22.4584 2.14941 21.8508C1.5418 21.2432 1.2002 20.4193 1.2002 19.56ZM9.8402 20.64C10.4367 20.64 10.9202 21.1235 10.9202 21.72C10.9202 22.3165 10.4367 22.8 9.8402 22.8H8.7602C8.16373 22.8 7.6802 22.3165 7.6802 21.72C7.6802 21.1235 8.16373 20.64 8.7602 20.64H9.8402ZM15.2402 20.64C15.8367 20.64 16.3202 21.1235 16.3202 21.72C16.3202 22.3165 15.8367 22.8 15.2402 22.8H14.1602C13.5637 22.8 13.0802 22.3165 13.0802 21.72C13.0802 21.1235 13.5637 20.64 14.1602 20.64H15.2402ZM20.6402 19.56C20.6402 18.9635 21.1237 18.48 21.7202 18.48C22.3167 18.48 22.8002 18.9635 22.8002 19.56C22.8002 20.4193 22.4586 21.2432 21.851 21.8508C21.2434 22.4584 20.4195 22.8 19.5602 22.8C18.9637 22.8 18.4802 22.3165 18.4802 21.72C18.4802 21.1235 18.9637 20.64 19.5602 20.64C19.8466 20.64 20.1213 20.5261 20.3238 20.3236C20.5263 20.1211 20.6402 19.8464 20.6402 19.56ZM1.2002 15.24V14.16C1.2002 13.5635 1.68373 13.08 2.2802 13.08C2.87666 13.08 3.3602 13.5635 3.3602 14.16V15.24C3.3602 15.8365 2.87666 16.32 2.2802 16.32C1.68373 16.32 1.2002 15.8365 1.2002 15.24ZM20.6402 15.24V14.16C20.6402 13.5635 21.1237 13.08 21.7202 13.08C22.3167 13.08 22.8002 13.5635 22.8002 14.16V15.24C22.8002 15.8365 22.3167 16.32 21.7202 16.32C21.1237 16.32 20.6402 15.8365 20.6402 15.24ZM1.2002 9.84001V8.76001C1.2002 8.16355 1.68373 7.68001 2.2802 7.68001C2.87666 7.68001 3.3602 8.16355 3.3602 8.76001V9.84001C3.3602 10.4365 2.87666 10.92 2.2802 10.92C1.68373 10.92 1.2002 10.4365 1.2002 9.84001ZM20.6402 9.84001V8.76001C20.6402 8.16355 21.1237 7.68001 21.7202 7.68001C22.3167 7.68001 22.8002 8.16355 22.8002 8.76001V9.84001C22.8002 10.4365 22.3167 10.92 21.7202 10.92C21.1237 10.92 20.6402 10.4365 20.6402 9.84001ZM1.2002 4.44001C1.2002 3.58071 1.5418 2.75685 2.14941 2.14923C2.75703 1.54161 3.58089 1.20001 4.4402 1.20001C5.03666 1.20001 5.5202 1.68354 5.5202 2.28001C5.5202 2.87648 5.03666 3.36001 4.4402 3.36001C4.15376 3.36001 3.87914 3.47388 3.6766 3.67642C3.47406 3.87896 3.3602 4.15358 3.3602 4.44001C3.3602 5.03648 2.87666 5.52001 2.2802 5.52001C1.68373 5.52001 1.2002 5.03648 1.2002 4.44001ZM20.6402 4.44001C20.6402 4.15358 20.5263 3.87896 20.3238 3.67642C20.1213 3.47388 19.8466 3.36001 19.5602 3.36001C18.9637 3.36001 18.4802 2.87648 18.4802 2.28001C18.4802 1.68354 18.9637 1.20001 19.5602 1.20001C20.4195 1.20001 21.2434 1.54161 21.851 2.14923C22.4586 2.75685 22.8002 3.58071 22.8002 4.44001C22.8002 5.03648 22.3167 5.52001 21.7202 5.52001C21.1237 5.52001 20.6402 5.03648 20.6402 4.44001ZM9.8402 1.20001C10.4367 1.20001 10.9202 1.68354 10.9202 2.28001C10.9202 2.87648 10.4367 3.36001 9.8402 3.36001H8.7602C8.16373 3.36001 7.6802 2.87648 7.6802 2.28001C7.6802 1.68354 8.16373 1.20001 8.7602 1.20001H9.8402ZM15.2402 1.20001C15.8367 1.20001 16.3202 1.68354 16.3202 2.28001C16.3202 2.87648 15.8367 3.36001 15.2402 3.36001H14.1602C13.5637 3.36001 13.0802 2.87648 13.0802 2.28001C13.0802 1.68354 13.5637 1.20001 14.1602 1.20001H15.2402Z" fill="#402824" fill-opacity="0.95"/>
</svg>
