<svg width="24" height="24" viewBox="0 0 24 24" fill="none" xmlns="http://www.w3.org/2000/svg">
<path d="M16.7231 6.17539C17.0305 5.92464 17.4841 5.94286 17.7706 6.2294C18.0571 6.51593 18.0754 6.96955 17.8246 7.27693L17.7706 7.33603L13.1066 12L17.7706 16.664L17.8246 16.7231C18.0754 17.0305 18.0571 17.4841 17.7706 17.7706C17.4841 18.0571 17.0305 18.0754 16.7231 17.8246L16.664 17.7706L12 13.1066L7.33603 17.7706C7.03041 18.0762 6.53502 18.0762 6.2294 17.7706C5.92378 17.465 5.92378 16.9696 6.2294 16.664L10.8934 12L6.2294 7.33603L6.17539 7.27693C5.92464 6.96955 5.94286 6.51593 6.2294 6.2294C6.51593 5.94286 6.96955 5.92464 7.27693 6.17539L7.33603 6.2294L12 10.8934L16.664 6.2294L16.7231 6.17539Z" fill="#402824" fill-opacity="0.95"/>
</svg>
