<svg width="24" height="24" viewBox="0 0 24 24" fill="none" xmlns="http://www.w3.org/2000/svg">
<path d="M20 10.0001C20 14.9932 14.461 20.1932 12.601 21.7992C12.4277 21.9295 12.2168 22 12 22C11.7832 22 11.5723 21.9295 11.399 21.7992C9.539 20.1932 4 14.9932 4 10.0001C4 7.87834 4.84285 5.84348 6.34315 4.34318C7.84344 2.84287 9.87827 2 12 2C14.1217 2 16.1566 2.84287 17.6569 4.34318C19.1571 5.84348 20 7.87834 20 10.0001Z" fill="white" stroke="#402824" stroke-opacity="0.95" stroke-width="1.7" stroke-linecap="round" stroke-linejoin="round"/>
<path d="M12 13.0001C13.6569 13.0001 15 11.6569 15 10.0001C15 8.34319 13.6569 7.00003 12 7.00003C10.3431 7.00003 9 8.34319 9 10.0001C9 11.6569 10.3431 13.0001 12 13.0001Z" fill="white" stroke="#402824" stroke-opacity="0.95" stroke-width="1.7" stroke-linecap="round" stroke-linejoin="round"/>
</svg>
