<svg width="19" height="23" viewBox="0 0 19 23" fill="none" xmlns="http://www.w3.org/2000/svg">
<path d="M17.5 9.5001C17.5 14.4932 11.961 19.6932 10.101 21.2992C9.92772 21.4295 9.7168 21.5 9.5 21.5C9.2832 21.5 9.07228 21.4295 8.899 21.2992C7.039 19.6932 1.5 14.4932 1.5 9.5001C1.5 7.37834 2.34285 5.34348 3.84315 3.84318C5.34344 2.34287 7.37827 1.5 9.5 1.5C11.6217 1.5 13.6566 2.34287 15.1569 3.84318C16.6571 5.34348 17.5 7.37834 17.5 9.5001Z" stroke="#402824" stroke-opacity="0.95" stroke-width="1.7" stroke-linecap="round" stroke-linejoin="round"/>
<path d="M9.5 12.5001C11.1569 12.5001 12.5 11.1569 12.5 9.50004C12.5 7.84316 11.1569 6.5 9.5 6.5C7.84315 6.5 6.5 7.84316 6.5 9.50004C6.5 11.1569 7.84315 12.5001 9.5 12.5001Z" stroke="#402824" stroke-opacity="0.95" stroke-width="1.7" stroke-linecap="round" stroke-linejoin="round"/>
</svg>
