<svg width="24" height="24" viewBox="0 0 24 24" fill="none" xmlns="http://www.w3.org/2000/svg">
<path d="M18.3158 7.69231V4.92308C18.3158 4.67826 18.2215 4.44347 18.0537 4.27036C17.8859 4.09725 17.6584 4 17.4211 4H5.78947C5.31488 4 4.85972 4.1945 4.52412 4.54073C4.18853 4.88695 4 5.35652 4 5.84615C4 6.33578 4.18853 6.80536 4.52412 7.15158C4.85972 7.4978 5.31488 7.69231 5.78947 7.69231H19.2105C19.4478 7.69231 19.6754 7.78956 19.8432 7.96267C20.011 8.13578 20.1053 8.37057 20.1053 8.61538V12.3077M20.1053 12.3077H17.4211C16.9465 12.3077 16.4913 12.5022 16.1557 12.8484C15.8201 13.1946 15.6316 13.6642 15.6316 14.1538C15.6316 14.6435 15.8201 15.1131 16.1557 15.4593C16.4913 15.8055 16.9465 16 17.4211 16H20.1053C20.3426 16 20.5701 15.9027 20.7379 15.7296C20.9057 15.5565 21 15.3217 21 15.0769V13.2308C21 12.986 20.9057 12.7512 20.7379 12.5781C20.5701 12.4049 20.3426 12.3077 20.1053 12.3077Z" stroke="#402824" stroke-opacity="0.95" stroke-width="1.7" stroke-linecap="round" stroke-linejoin="round"/>
<path d="M4 6V18.25C4 18.7141 4.1873 19.1592 4.5207 19.4874C4.8541 19.8156 5.30628 20 5.77778 20H19.1111C19.3469 20 19.573 19.9078 19.7397 19.7437C19.9064 19.5796 20 19.3571 20 19.125V15.625" stroke="#402824" stroke-opacity="0.95" stroke-width="1.7" stroke-linecap="round" stroke-linejoin="round"/>
</svg>
