<svg width="24" height="24" viewBox="0 0 24 24" fill="none" xmlns="http://www.w3.org/2000/svg">
<path d="M3 18.6667C3 17.429 3.50044 16.242 4.39124 15.3668C5.28204 14.4917 6.49022 14 7.75 14H17.25C18.5098 14 19.718 14.4917 20.6088 15.3668C21.4996 16.242 22 17.429 22 18.6667C22 19.2855 21.7498 19.879 21.3044 20.3166C20.859 20.7542 20.2549 21 19.625 21H5.375C4.74511 21 4.14102 20.7542 3.69562 20.3166C3.25022 19.879 3 19.2855 3 18.6667Z" stroke="#402824" stroke-opacity="0.95" stroke-width="1.7" stroke-linejoin="round"/>
<path d="M12.5 10C14.433 10 16 8.433 16 6.5C16 4.567 14.433 3 12.5 3C10.567 3 9 4.567 9 6.5C9 8.433 10.567 10 12.5 10Z" stroke="#402824" stroke-opacity="0.95" stroke-width="1.7"/>
</svg>
