<svg width="24" height="24" viewBox="0 0 24 24" fill="none" xmlns="http://www.w3.org/2000/svg">
<path d="M-246 -71V-70H185V-71V-72H-246V-71ZM235 -21H234V184H235H236V-21H235ZM185 234V233H-246V234V235H185V234ZM-296 184H-295V-21H-296H-297V184H-296ZM-246 234V233C-273.062 233 -295 211.062 -295 184H-296H-297C-297 212.167 -274.167 235 -246 235V234ZM235 184H234C234 211.062 212.062 233 185 233V234V235C213.167 235 236 212.167 236 184H235ZM185 -71V-70C212.062 -70 234 -48.062 234 -21H235H236C236 -49.1665 213.167 -72 185 -72V-71ZM-246 -71V-72C-274.167 -72 -297 -49.1665 -297 -21H-296H-295C-295 -48.062 -273.062 -70 -246 -70V-71Z" fill="black" fill-opacity="0.1"/>
<path d="M12 7V12H16" stroke="#402824" stroke-opacity="0.95" stroke-width="1.7" stroke-linecap="round" stroke-linejoin="round"/>
<path d="M12 21C16.9706 21 21 16.9706 21 12C21 7.02944 16.9706 3 12 3C7.02944 3 3 7.02944 3 12C3 16.9706 7.02944 21 12 21Z" stroke="#402824" stroke-opacity="0.95" stroke-width="1.7" stroke-linecap="round" stroke-linejoin="round"/>
</svg>
