<svg width="24" height="24" viewBox="0 0 24 24" fill="none" xmlns="http://www.w3.org/2000/svg">
<path d="M17.9974 21.1575C16.8344 22.2656 15.5645 22.0907 14.3422 21.5657C13.0486 21.0291 11.8618 21.0058 10.497 21.5657C8.78802 22.289 7.88607 22.079 6.86544 21.1575C1.07395 15.2899 1.92843 6.35432 8.5032 6.0277C10.1054 6.10935 11.2209 6.89092 12.1585 6.96091C13.5589 6.68095 14.8999 5.87605 16.3953 5.98104C18.1873 6.12102 19.5403 6.82093 20.4303 8.08077C16.7276 10.2622 17.6058 15.0566 21 16.3981C20.3235 18.1478 19.4453 19.886 17.9856 21.1691L17.9974 21.1575ZM12.0398 5.95771C11.8618 3.35637 14.0099 1.20997 16.4784 1C16.8225 4.00962 13.7013 6.24934 12.0398 5.95771Z" fill="black"/>
</svg>
