<svg width="24" height="24" viewBox="0 0 24 24" fill="none" xmlns="http://www.w3.org/2000/svg">
<path d="M12.222 5.97701C13.6435 5.95316 15.0172 6.49068 16.045 7.47301L18.913 4.60501C17.103 2.90478 14.7051 1.97122 12.222 2.00001C10.3679 1.99924 8.55011 2.51416 6.97186 3.48721C5.3936 4.46026 4.11709 5.8531 3.285 7.51001L6.626 10.1C7.01023 8.91376 7.75685 7.87789 8.76072 7.13826C9.7646 6.39863 10.9752 5.99248 12.222 5.97701Z" fill="#FF4308"/>
<path d="M3.285 7.51001C2.58591 8.9035 2.22266 10.441 2.22266 12C2.22266 13.559 2.5867 15.0965 3.28579 16.49L6.62679 13.9C6.20869 12.6678 6.2079 11.3322 6.626 10.1L3.285 7.51001Z" fill="#FFC107"/>
<path d="M15.6072 17.068C14.834 17.5643 13.9577 17.8775 13.0452 17.9836C12.1326 18.0898 11.2079 17.9861 10.3414 17.6805C9.47504 17.3749 8.68987 16.8755 8.04582 16.2203C7.40177 15.5652 6.91586 14.7715 6.62516 13.9L3.28579 16.49C4.11772 18.1466 5.3933 19.5393 6.97116 20.5123C8.54903 21.4853 10.3664 22.0004 12.2202 22C14.6544 22.066 17.0219 21.1992 18.8382 19.577L15.6072 17.068Z" fill="#47AD4B"/>
<path d="M21.6407 10.1819H12.2227V14.0499H17.6047C17.4932 14.6617 17.2589 15.2447 16.9159 15.7634C16.5728 16.2821 16.1281 16.7259 15.6087 17.0679L18.8407 19.5779C19.8249 18.63 20.5989 17.4859 21.1126 16.2197C21.6263 14.9535 21.8682 13.5936 21.8227 12.2279C21.8227 11.5409 21.7627 10.8569 21.6407 10.1819Z" fill="#0F70D0"/>
</svg>
