<svg width="24" height="24" viewBox="0 0 24 24" fill="none" xmlns="http://www.w3.org/2000/svg">
<path d="M15.0587 6.49624H8.93374V17.503H15.0587V6.49624Z" fill="#FF5F00"/>
<path d="M9.32213 12C9.32116 10.94 9.56138 9.89361 10.0246 8.94013C10.4878 7.98666 11.1618 7.15106 11.9957 6.4966C10.9631 5.68492 9.7229 5.18015 8.41694 5.03998C7.11099 4.89981 5.79194 5.1299 4.61056 5.70395C3.42919 6.278 2.43315 7.17284 1.73631 8.28621C1.03946 9.39958 0.669922 10.6865 0.669922 12C0.669922 13.3135 1.03946 14.6004 1.73631 15.7138C2.43315 16.8272 3.42919 17.722 4.61056 18.2961C5.79194 18.8701 7.11099 19.1002 8.41694 18.96C9.7229 18.8199 10.9631 18.3151 11.9957 17.5034C11.1618 16.8489 10.4878 16.0133 10.0246 15.0599C9.56138 14.1064 9.32117 13.06 9.32213 12Z" fill="#EB001B"/>
<path d="M23.3212 12C23.3213 13.3134 22.9518 14.6004 22.255 15.7138C21.5582 16.8271 20.5622 17.722 19.3808 18.296C18.1995 18.8701 16.8804 19.1002 15.5745 18.96C14.2686 18.8199 13.0283 18.3151 11.9957 17.5034C12.8289 16.8483 13.5025 16.0125 13.9656 15.0592C14.4287 14.1059 14.6694 13.0599 14.6694 12C14.6694 10.9401 14.4287 9.8941 13.9656 8.94078C13.5025 7.98746 12.8289 7.15172 11.9957 6.4966C13.0283 5.68492 14.2686 5.18015 15.5745 5.03998C16.8804 4.89981 18.1995 5.1299 19.3808 5.70396C20.5622 6.27801 21.5582 7.17287 22.255 8.28623C22.9518 9.3996 23.3213 10.6866 23.3212 12Z" fill="#F79E1B"/>
</svg>
