<svg width="24" height="24" viewBox="0 0 24 24" fill="none" xmlns="http://www.w3.org/2000/svg">
<path fill-rule="evenodd" clip-rule="evenodd" d="M2.21936 8.71987C2.43377 8.71858 3.07099 8.66119 3.34091 9.57216C3.52273 10.1858 3.81235 11.191 4.20979 12.5877H4.37164C4.79786 11.1152 5.09064 10.11 5.25 9.57216C5.52273 8.6517 6.20455 8.71989 6.47727 8.71989L8.58143 8.71989V15.2653H6.43682V11.408H6.293L5.09749 15.2653H3.48394L2.28842 11.4051H2.14461V15.2653H0V8.71989L2.21936 8.71987ZM11.661 8.71989V12.5801H11.8321L13.2864 9.40587C13.5687 8.77419 14.1703 8.71989 14.1703 8.71989H16.2457V15.2653H14.0563V11.4051H13.8852L12.4595 14.5794C12.1772 15.2082 11.547 15.2653 11.547 15.2653H9.47165V8.71989H11.661ZM23.8132 11.8303C23.5078 12.6958 22.5487 13.3156 21.4869 13.3156H19.1909V15.2653H17.1089V11.8303H23.8132Z" fill="#0F754E"/>
<path fill-rule="evenodd" clip-rule="evenodd" d="M21.5876 8.71985H17C17.1092 10.1771 18.3641 11.4246 19.6632 11.4246H23.9582C24.206 10.2134 23.3528 8.71985 21.5876 8.71985Z" fill="url(#paint0_linear_1008_14373)"/>
<defs>
<linearGradient id="paint0_linear_1008_14373" x1="24.0003" y1="10.4212" x2="17" y2="10.4212" gradientUnits="userSpaceOnUse">
<stop stop-color="#1F5CD7"/>
<stop offset="1" stop-color="#02AEFF"/>
</linearGradient>
</defs>
</svg>
